<svg xmlns="http://www.w3.org/2000/svg">
<symbol id="ethernet" x="0px" y="0px" viewBox="0 0 508 508" style="enable-background:new 0 0 508 508;" fill="currentColor">
    <path style="fill: #aaa" d="M454,6H52C26.8,6,6,26.8,6,52v404c0,25.2,20.8,46,46,46h404c25.2,0,46-20.8,46-46V54C502,27.6,480.4,6,454,6z M450,288c0,1.2-0.8,2-2,2h-2h-88v62c0,1.2-0.8,2-2,2h-2H156h-2v-2v-62H64h-2v-2V66v-2c0-1.2,0.8-2,2-2h384c1.2,0,2,0.8,2,2V288z"/>
    <path style="fill:#F4EFEF;" d="M156,286c1.2,0,2,0.8,2,2v62h196v-60v-2c0-1.2,0.8-2,2-2h90V66H66v220H156z"/>
    <g>
      <path style="fill:#CC9999;" d="M62,288v2h2C62.8,290,62,289.2,62,288z"/>
      <path style="fill:#CC9999;" d="M154,352v2h2C154.8,354,154,353.2,154,352z"/>
    </g>
    <path d="M456,508H52c-28.8,0-52-23.2-52-52V52C0,23.2,23.2,0,52,0h404c28.8,0,52,23.2,52,52v404C508,484.8,484.8,508,456,508z M52,8C27.6,8,8,27.6,8,52v404c0,24.4,19.6,44,44,44h404c24.4,0,44-19.6,44-44V52c0-24.4-19.6-44-44-44H52z"/>
    <path d="M356,356H156c-2.4,0-4-1.6-4-4v-60H64c-2.4,0-4-1.6-4-4V64c0-2.4,1.6-4,4-4h384c2.4,0,4,1.6,4,4v224c0,2.4-1.6,4-4,4h-88v60C360,354.4,358.4,356,356,356z M160,348h192v-60c0-2.4,1.6-4,4-4h88V68H68v216h88c2.4,0,4,1.6,4,4V348z"/>
    <path d="M256,162c-2.4,0-4-1.6-4-4V66c0-2.4,1.6-4,4-4s4,1.6,4,4v92C260,160.4,258.4,162,256,162z"/>
    <path d="M212,162c-2.4,0-4-1.6-4-4V66c0-2.4,1.6-4,4-4s4,1.6,4,4v92C216,160.4,214.4,162,212,162z"/>
    <path d="M168,162c-2.4,0-4-1.6-4-4V66c0-2.4,1.6-4,4-4s4,1.6,4,4v92C172,160.4,170.4,162,168,162z"/>
    <path d="M124,162c-2.4,0-4-1.6-4-4V66c0-2.4,1.6-4,4-4s4,1.6,4,4v92C128,160.4,126.4,162,124,162z"/>
    <path d="M388,162c-2.4,0-4-1.6-4-4V66c0-2.4,1.6-4,4-4s4,1.6,4,4v92C392,160.4,390.4,162,388,162z"/>
    <path d="M344,162c-2.4,0-4-1.6-4-4V66c0-2.4,1.6-4,4-4s4,1.6,4,4v92C348,160.4,346.4,162,344,162z"/>
    <path d="M300,162c-2.4,0-4-1.6-4-4V66c0-2.4,1.6-4,4-4s4,1.6,4,4v92C304,160.4,302.4,162,300,162z"/>
    <path d="M256,214c-2.4,0-4-1.6-4-4v-24c0-2.4,1.6-4,4-4s4,1.6,4,4v24C260,212.4,258.4,214,256,214z"/>
    <path d="M212,214c-2.4,0-4-1.6-4-4v-24c0-2.4,1.6-4,4-4s4,1.6,4,4v24C216,212.4,214.4,214,212,214z"/>
    <path d="M168,214c-2.4,0-4-1.6-4-4v-24c0-2.4,1.6-4,4-4s4,1.6,4,4v24C172,212.4,170.4,214,168,214z"/>
    <path d="M124,214c-2.4,0-4-1.6-4-4v-24c0-2.4,1.6-4,4-4s4,1.6,4,4v24C128,212.4,126.4,214,124,214z"/>
    <path d="M388,214c-2.4,0-4-1.6-4-4v-24c0-2.4,1.6-4,4-4s4,1.6,4,4v24C392,212.4,390.4,214,388,214z"/>
    <path d="M344,214c-2.4,0-4-1.6-4-4v-24c0-2.4,1.6-4,4-4s4,1.6,4,4v24C348,212.4,346.4,214,344,214z"/>
    <path d="M300,214c-2.4,0-4-1.6-4-4v-24c0-2.4,1.6-4,4-4s4,1.6,4,4v24C304,212.4,302.4,214,300,214z"/>
</symbol>
<symbol id="ethernet-online" x="0px" y="0px" viewBox="0 0 508 508" style="enable-background:new 0 0 508 508;" fill="currentColor">
    <path style="fill: #E6F900" d="M454,6H52C26.8,6,6,26.8,6,52v404c0,25.2,20.8,46,46,46h404c25.2,0,46-20.8,46-46V54C502,27.6,480.4,6,454,6z M450,288c0,1.2-0.8,2-2,2h-2h-88v62c0,1.2-0.8,2-2,2h-2H156h-2v-2v-62H64h-2v-2V66v-2c0-1.2,0.8-2,2-2h384c1.2,0,2,0.8,2,2V288z"/>
    <path style="fill:#Fffc1b;" d="M156,286c1.2,0,2,0.8,2,2v62h196v-60v-2c0-1.2,0.8-2,2-2h90V66H66v220H156z"/>
    <g>
      <path style="fill:#CC9999;" d="M62,288v2h2C62.8,290,62,289.2,62,288z"/>
      <path style="fill:#CC9999;" d="M154,352v2h2C154.8,354,154,353.2,154,352z"/>
    </g>
    <path d="M456,508H52c-28.8,0-52-23.2-52-52V52C0,23.2,23.2,0,52,0h404c28.8,0,52,23.2,52,52v404C508,484.8,484.8,508,456,508z M52,8C27.6,8,8,27.6,8,52v404c0,24.4,19.6,44,44,44h404c24.4,0,44-19.6,44-44V52c0-24.4-19.6-44-44-44H52z"/>
    <path d="M356,356H156c-2.4,0-4-1.6-4-4v-60H64c-2.4,0-4-1.6-4-4V64c0-2.4,1.6-4,4-4h384c2.4,0,4,1.6,4,4v224c0,2.4-1.6,4-4,4h-88v60C360,354.4,358.4,356,356,356z M160,348h192v-60c0-2.4,1.6-4,4-4h88V68H68v216h88c2.4,0,4,1.6,4,4V348z"/>
    <path d="M256,162c-2.4,0-4-1.6-4-4V66c0-2.4,1.6-4,4-4s4,1.6,4,4v92C260,160.4,258.4,162,256,162z"/>
    <path d="M212,162c-2.4,0-4-1.6-4-4V66c0-2.4,1.6-4,4-4s4,1.6,4,4v92C216,160.4,214.4,162,212,162z"/>
    <path d="M168,162c-2.4,0-4-1.6-4-4V66c0-2.4,1.6-4,4-4s4,1.6,4,4v92C172,160.4,170.4,162,168,162z"/>
    <path d="M124,162c-2.4,0-4-1.6-4-4V66c0-2.4,1.6-4,4-4s4,1.6,4,4v92C128,160.4,126.4,162,124,162z"/>
    <path d="M388,162c-2.4,0-4-1.6-4-4V66c0-2.4,1.6-4,4-4s4,1.6,4,4v92C392,160.4,390.4,162,388,162z"/>
    <path d="M344,162c-2.4,0-4-1.6-4-4V66c0-2.4,1.6-4,4-4s4,1.6,4,4v92C348,160.4,346.4,162,344,162z"/>
    <path d="M300,162c-2.4,0-4-1.6-4-4V66c0-2.4,1.6-4,4-4s4,1.6,4,4v92C304,160.4,302.4,162,300,162z"/>
    <path d="M256,214c-2.4,0-4-1.6-4-4v-24c0-2.4,1.6-4,4-4s4,1.6,4,4v24C260,212.4,258.4,214,256,214z"/>
    <path d="M212,214c-2.4,0-4-1.6-4-4v-24c0-2.4,1.6-4,4-4s4,1.6,4,4v24C216,212.4,214.4,214,212,214z"/>
    <path d="M168,214c-2.4,0-4-1.6-4-4v-24c0-2.4,1.6-4,4-4s4,1.6,4,4v24C172,212.4,170.4,214,168,214z"/>
    <path d="M124,214c-2.4,0-4-1.6-4-4v-24c0-2.4,1.6-4,4-4s4,1.6,4,4v24C128,212.4,126.4,214,124,214z"/>
    <path d="M388,214c-2.4,0-4-1.6-4-4v-24c0-2.4,1.6-4,4-4s4,1.6,4,4v24C392,212.4,390.4,214,388,214z"/>
    <path d="M344,214c-2.4,0-4-1.6-4-4v-24c0-2.4,1.6-4,4-4s4,1.6,4,4v24C348,212.4,346.4,214,344,214z"/>
    <path d="M300,214c-2.4,0-4-1.6-4-4v-24c0-2.4,1.6-4,4-4s4,1.6,4,4v24C304,212.4,302.4,214,300,214z"/>
</symbol>
</svg>
